<svg width="2385" height="959" viewBox="0 0 2385 959" fill="none" xmlns="http://www.w3.org/2000/svg">
<rect x="0.75" y="2.75" width="715.162" height="954.5" stroke="white" stroke-width="1.5"/>
<line x1="81.8472" y1="3.06055" x2="81.8471" y2="958" stroke="white" stroke-width="1.5"/>
<line x1="160.823" y1="3.06055" x2="160.823" y2="958" stroke="white" stroke-width="1.5"/>
<line x1="239.799" y1="3.06055" x2="239.799" y2="958" stroke="white" stroke-width="1.5"/>
<line x1="318.774" y1="3.06055" x2="318.774" y2="958" stroke="white" stroke-width="1.5"/>
<line x1="397.75" y1="3.06055" x2="397.75" y2="958" stroke="white" stroke-width="1.5"/>
<line x1="476.726" y1="3.06055" x2="476.726" y2="958" stroke="white" stroke-width="1.5"/>
<line x1="555.701" y1="3.06055" x2="555.701" y2="958" stroke="white" stroke-width="1.5"/>
<line x1="634.677" y1="2" x2="634.677" y2="956.939" stroke="white" stroke-width="1.5"/>
<line x1="0.79541" y1="637.054" x2="716.663" y2="637.054" stroke="white" stroke-width="1.5"/>
<line x1="0.79541" y1="558.079" x2="716.663" y2="558.079" stroke="white" stroke-width="1.5"/>
<line x1="0.79541" y1="479.103" x2="716.663" y2="479.103" stroke="white" stroke-width="1.5"/>
<line x1="0.771484" y1="873.936" x2="716.639" y2="873.936" stroke="white" stroke-width="1.5"/>
<line x1="0.79541" y1="400.127" x2="716.663" y2="400.127" stroke="white" stroke-width="1.5"/>
<line x1="0.771484" y1="794.96" x2="716.639" y2="794.96" stroke="white" stroke-width="1.5"/>
<line x1="0.79541" y1="321.152" x2="716.663" y2="321.152" stroke="white" stroke-width="1.5"/>
<line x1="0.771484" y1="715.984" x2="716.639" y2="715.984" stroke="white" stroke-width="1.5"/>
<line x1="0.79541" y1="242.176" x2="716.663" y2="242.176" stroke="white" stroke-width="1.5"/>
<line x1="0.79541" y1="163.201" x2="716.663" y2="163.201" stroke="white" stroke-width="1.5"/>
<line x1="2.45761e-08" y1="84.2266" x2="715.867" y2="84.2266" stroke="white" stroke-width="1.5"/>
<path d="M713.908 2H1072.24H1192.28M713.908 958H1072.24H1192.22" stroke="white" stroke-width="1.5"/>
<line x1="795.755" y1="3.06055" x2="795.755" y2="958" stroke="white" stroke-width="1.5"/>
<line x1="874.731" y1="3.06055" x2="874.731" y2="958" stroke="white" stroke-width="1.5"/>
<line x1="953.707" y1="3.06055" x2="953.707" y2="958" stroke="white" stroke-width="1.5"/>
<line x1="1032.68" y1="3.06055" x2="1032.68" y2="958" stroke="white" stroke-width="1.5"/>
<line x1="1111.66" y1="3.06055" x2="1111.66" y2="958" stroke="white" stroke-width="1.5"/>
<line x1="1190.63" y1="3.06055" x2="1190.63" y2="958" stroke="white" stroke-width="1.5"/>
<line x1="714.439" y1="637.054" x2="1192.22" y2="637.054" stroke="white" stroke-width="1.5"/>
<line x1="714.439" y1="558.079" x2="1192.22" y2="558.079" stroke="white" stroke-width="1.5"/>
<line x1="714.439" y1="479.103" x2="1192.22" y2="479.103" stroke="white" stroke-width="1.5"/>
<line x1="714.423" y1="873.936" x2="1192.2" y2="873.936" stroke="white" stroke-width="1.5"/>
<line x1="714.439" y1="400.127" x2="1192.22" y2="400.127" stroke="white" stroke-width="1.5"/>
<line x1="714.423" y1="794.96" x2="1192.2" y2="794.96" stroke="white" stroke-width="1.5"/>
<line x1="714.439" y1="321.152" x2="1192.22" y2="321.152" stroke="white" stroke-width="1.5"/>
<line x1="714.423" y1="715.984" x2="1192.2" y2="715.984" stroke="white" stroke-width="1.5"/>
<line x1="714.439" y1="242.176" x2="1192.22" y2="242.176" stroke="white" stroke-width="1.5"/>
<line x1="714.439" y1="163.201" x2="1192.22" y2="163.201" stroke="white" stroke-width="1.5"/>
<line x1="713.908" y1="84.2266" x2="1191.69" y2="84.2266" stroke="white" stroke-width="1.5"/>
<rect x="1190.75" y="1.75" width="715.162" height="954.5" stroke="white" stroke-width="1.5"/>
<line x1="1271.85" y1="2.06055" x2="1271.85" y2="957" stroke="white" stroke-width="1.5"/>
<line x1="1350.82" y1="2.06055" x2="1350.82" y2="957" stroke="white" stroke-width="1.5"/>
<line x1="1429.8" y1="2.06055" x2="1429.8" y2="957" stroke="white" stroke-width="1.5"/>
<line x1="1508.77" y1="2.06055" x2="1508.77" y2="957" stroke="white" stroke-width="1.5"/>
<line x1="1587.75" y1="2.06055" x2="1587.75" y2="957" stroke="white" stroke-width="1.5"/>
<line x1="1666.73" y1="2.06055" x2="1666.73" y2="957" stroke="white" stroke-width="1.5"/>
<line x1="1745.7" y1="2.06055" x2="1745.7" y2="957" stroke="white" stroke-width="1.5"/>
<line x1="1824.68" y1="1" x2="1824.68" y2="955.939" stroke="white" stroke-width="1.5"/>
<line x1="1190.8" y1="636.054" x2="1906.66" y2="636.054" stroke="white" stroke-width="1.5"/>
<line x1="1190.8" y1="557.079" x2="1906.66" y2="557.079" stroke="white" stroke-width="1.5"/>
<line x1="1190.8" y1="478.103" x2="1906.66" y2="478.103" stroke="white" stroke-width="1.5"/>
<line x1="1190.77" y1="872.936" x2="1906.64" y2="872.936" stroke="white" stroke-width="1.5"/>
<line x1="1190.8" y1="399.127" x2="1906.66" y2="399.127" stroke="white" stroke-width="1.5"/>
<line x1="1190.77" y1="793.96" x2="1906.64" y2="793.96" stroke="white" stroke-width="1.5"/>
<line x1="1190.8" y1="320.152" x2="1906.66" y2="320.152" stroke="white" stroke-width="1.5"/>
<line x1="1190.77" y1="714.984" x2="1906.64" y2="714.984" stroke="white" stroke-width="1.5"/>
<line x1="1190.8" y1="241.176" x2="1906.66" y2="241.176" stroke="white" stroke-width="1.5"/>
<line x1="1190.8" y1="162.201" x2="1906.66" y2="162.201" stroke="white" stroke-width="1.5"/>
<line x1="1190" y1="83.2266" x2="1905.87" y2="83.2266" stroke="white" stroke-width="1.5"/>
<path d="M1905.91 1H2264.24H2384.28M1905.91 957H2264.24H2384.22" stroke="white" stroke-width="1.5"/>
<line x1="1987.76" y1="2.06055" x2="1987.76" y2="957" stroke="white" stroke-width="1.5"/>
<line x1="2066.73" y1="2.06055" x2="2066.73" y2="957" stroke="white" stroke-width="1.5"/>
<line x1="2145.71" y1="2.06055" x2="2145.71" y2="957" stroke="white" stroke-width="1.5"/>
<line x1="2224.68" y1="2.06055" x2="2224.68" y2="957" stroke="white" stroke-width="1.5"/>
<line x1="2303.66" y1="2.06055" x2="2303.66" y2="957" stroke="white" stroke-width="1.5"/>
<line x1="2382.63" y1="2.06055" x2="2382.63" y2="957" stroke="white" stroke-width="1.5"/>
<line x1="1906.44" y1="636.054" x2="2384.22" y2="636.054" stroke="white" stroke-width="1.5"/>
<line x1="1906.44" y1="557.079" x2="2384.22" y2="557.079" stroke="white" stroke-width="1.5"/>
<line x1="1906.44" y1="478.103" x2="2384.22" y2="478.103" stroke="white" stroke-width="1.5"/>
<line x1="1906.42" y1="872.936" x2="2384.2" y2="872.936" stroke="white" stroke-width="1.5"/>
<line x1="1906.44" y1="399.127" x2="2384.22" y2="399.127" stroke="white" stroke-width="1.5"/>
<line x1="1906.42" y1="793.96" x2="2384.2" y2="793.96" stroke="white" stroke-width="1.5"/>
<line x1="1906.44" y1="320.152" x2="2384.22" y2="320.152" stroke="white" stroke-width="1.5"/>
<line x1="1906.42" y1="714.984" x2="2384.2" y2="714.984" stroke="white" stroke-width="1.5"/>
<line x1="1906.44" y1="241.176" x2="2384.22" y2="241.176" stroke="white" stroke-width="1.5"/>
<line x1="1906.44" y1="162.201" x2="2384.22" y2="162.201" stroke="white" stroke-width="1.5"/>
<line x1="1905.91" y1="83.2266" x2="2383.69" y2="83.2266" stroke="white" stroke-width="1.5"/>
</svg>
