<svg width="57" height="57" viewBox="0 0 57 57" fill="none" xmlns="http://www.w3.org/2000/svg">
<g clip-path="url(#clip0_259_283)">
<path d="M53.8877 45.0821C53.8877 46.3148 53.398 47.4971 52.5263 48.3687C51.6547 49.2404 50.4724 49.7301 49.2397 49.7301H7.4082C6.17549 49.7301 4.99327 49.2404 4.12161 48.3687C3.24995 47.4971 2.76025 46.3148 2.76025 45.0821V19.5184C2.76025 18.2857 3.24995 17.1035 4.12161 16.2318C4.99327 15.3601 6.17549 14.8705 7.4082 14.8705H16.7041L21.352 7.89853H35.2959L39.9438 14.8705H49.2397C50.4724 14.8705 51.6547 15.3601 52.5263 16.2318C53.398 17.1035 53.8877 18.2857 53.8877 19.5184V45.0821Z" stroke="white" stroke-width="4.64795" stroke-linecap="round" stroke-linejoin="round"/>
<path d="M28.324 40.4342C33.458 40.4342 37.6199 36.2723 37.6199 31.1383C37.6199 26.0043 33.458 21.8424 28.324 21.8424C23.19 21.8424 19.0281 26.0043 19.0281 31.1383C19.0281 36.2723 23.19 40.4342 28.324 40.4342Z" stroke="white" stroke-width="4.64795" stroke-linecap="round" stroke-linejoin="round"/>
</g>
<defs>
<clipPath id="clip0_259_283">
<rect width="55.7754" height="55.7754" fill="white" transform="translate(0.436279 0.926575)"/>
</clipPath>
</defs>
</svg>
