<svg width="904" height="242" viewBox="0 0 904 242" fill="none" xmlns="http://www.w3.org/2000/svg">
<path d="M25.4286 29L25.4286 30.1475L25.4286 29ZM49.7762 231.922C50.2244 232.37 50.2244 233.097 49.7762 233.545L42.4734 240.848C42.0253 241.296 41.2988 241.296 40.8506 240.848C40.4025 240.4 40.4025 239.673 40.8506 239.225L47.342 232.734L40.8506 226.242C40.4025 225.794 40.4025 225.068 40.8506 224.619C41.2988 224.171 42.0253 224.171 42.4735 224.619L49.7762 231.922ZM924.5 30.1475L25.4286 30.1475L25.4286 27.8525L924.5 27.8525L924.5 30.1475ZM3.14747 52.4286L3.14746 209.305L0.852418 209.305L0.852425 52.4286L3.14747 52.4286ZM25.4286 231.586L48.9648 231.586L48.9648 233.881L25.4286 233.881L25.4286 231.586ZM3.14746 209.305C3.14746 221.611 13.1231 231.586 25.4286 231.586L25.4286 233.881C11.8555 233.881 0.852417 222.878 0.852418 209.305L3.14746 209.305ZM25.4286 30.1475C13.1231 30.1475 3.14747 40.1231 3.14747 52.4286L0.852425 52.4286C0.852425 38.8556 11.8555 27.8525 25.4286 27.8525L25.4286 30.1475Z" fill="white"/>
<circle cx="829" cy="28.9999" r="27.5001" transform="rotate(180 829 28.9999)" fill="black" stroke="white" stroke-width="3"/>
<path fill-rule="evenodd" clip-rule="evenodd" d="M825.994 36.6228C825.994 38.3058 827.358 39.67 829.041 39.67C830.724 39.67 832.088 38.3058 832.088 36.6228V32.0886H836.623C838.306 32.0886 839.67 30.7243 839.67 29.0414C839.67 27.3585 838.306 25.9942 836.623 25.9942H832.088V21.46C832.088 19.777 830.724 18.4128 829.041 18.4128C827.358 18.4128 825.994 19.777 825.994 21.46V25.9942H821.46C819.777 25.9942 818.413 27.3585 818.413 29.0414C818.413 30.7243 819.777 32.0886 821.46 32.0886H825.994V36.6228Z" fill="white"/>
</svg>
