<svg width="185" height="379" viewBox="0 0 185 379" fill="none" xmlns="http://www.w3.org/2000/svg">
<path d="M183.816 371.73C184.219 371.327 184.219 370.673 183.816 370.27L177.242 363.696C176.839 363.293 176.185 363.293 175.782 363.696C175.378 364.1 175.378 364.754 175.782 365.157L181.625 371L175.782 376.843C175.378 377.246 175.378 377.9 175.782 378.304C176.185 378.707 176.839 378.707 177.242 378.304L183.816 371.73ZM-88.9999 20.3275C-89.5703 20.3275 -90.0328 20.7899 -90.0328 21.3604C-90.0328 21.9309 -89.5703 22.3933 -88.9999 22.3933V20.3275ZM183.085 369.967L133.807 369.967L133.807 372.033L183.085 372.033L183.085 369.967ZM116.334 352.494V39.8667H114.268V352.494H116.334ZM96.7945 20.3275H-77.3366V22.3933H96.7945V20.3275ZM-88.9999 22.3933H-77.3366V20.3275H-88.9999V22.3933ZM116.334 39.8667C116.334 29.0755 107.586 20.3275 96.7945 20.3275V22.3933C106.445 22.3933 114.268 30.2164 114.268 39.8667H116.334ZM133.807 369.967C124.157 369.967 116.334 362.144 116.334 352.494H114.268C114.268 363.285 123.016 372.033 133.807 372.033L133.807 369.967Z" fill="white"/>
<rect x="133.168" y="32.3144" width="43.6336" height="43.6336" rx="9.46833" transform="rotate(135 133.168 32.3144)" fill="black" stroke="white" stroke-width="2.06582"/>
</svg>
