<svg width="58" height="58" viewBox="0 0 58 58" fill="none" xmlns="http://www.w3.org/2000/svg">
<circle cx="28.9999" cy="28.9999" r="27.5001" transform="rotate(180 28.9999 28.9999)" fill="black" stroke="white" stroke-width="3"/>
<path fill-rule="evenodd" clip-rule="evenodd" d="M25.9941 36.6228C25.9941 38.3058 27.3584 39.67 29.0413 39.67C30.7242 39.67 32.0885 38.3058 32.0885 36.6228V32.0886H36.6227C38.3056 32.0886 39.6699 30.7243 39.6699 29.0414C39.6699 27.3585 38.3056 25.9942 36.6227 25.9942H32.0885V21.46C32.0885 19.777 30.7242 18.4128 29.0413 18.4128C27.3584 18.4128 25.9941 19.777 25.9941 21.46V25.9942H21.4598C19.7769 25.9942 18.4126 27.3585 18.4126 29.0414C18.4126 30.7243 19.7769 32.0886 21.4598 32.0886H25.9941V36.6228Z" fill="white"/>
</svg>
