<svg width="1080" height="330" viewBox="0 0 1080 330" fill="none" xmlns="http://www.w3.org/2000/svg">
<g filter="url(#filter0_d_259_220)">
<rect x="-55.5" y="-634.5" width="715.662" height="955" stroke="white"/>
<line x1="25.5972" y1="-633.939" x2="25.5971" y2="321" stroke="white"/>
<line x1="104.573" y1="-633.939" x2="104.573" y2="321" stroke="white"/>
<line x1="183.549" y1="-633.939" x2="183.549" y2="321" stroke="white"/>
<line x1="262.524" y1="-633.939" x2="262.524" y2="321" stroke="white"/>
<line x1="341.5" y1="-633.939" x2="341.5" y2="321" stroke="white"/>
<line x1="420.476" y1="-633.939" x2="420.476" y2="321" stroke="white"/>
<line x1="499.451" y1="-633.939" x2="499.451" y2="321" stroke="white"/>
<line x1="578.427" y1="-635" x2="578.427" y2="319.939" stroke="white"/>
<line x1="-55.2046" y1="0.304138" x2="660.663" y2="0.30418" stroke="white"/>
<line x1="-55.2285" y1="237.185" x2="660.639" y2="237.185" stroke="white"/>
<line x1="-55.2285" y1="158.21" x2="660.639" y2="158.21" stroke="white"/>
<line x1="-55.2285" y1="79.2341" x2="660.639" y2="79.2341" stroke="white"/>
<path d="M657.908 -635H1016.24H1136.28M657.908 321H1016.24H1136.22" stroke="white"/>
<line x1="739.505" y1="-633.939" x2="739.505" y2="321" stroke="white"/>
<line x1="818.481" y1="-633.939" x2="818.481" y2="321" stroke="white"/>
<line x1="897.457" y1="-633.939" x2="897.457" y2="321" stroke="white"/>
<line x1="976.432" y1="-633.939" x2="976.432" y2="321" stroke="white"/>
<line x1="1055.41" y1="-633.939" x2="1055.41" y2="321" stroke="white"/>
<line x1="658.439" y1="0.304138" x2="1136.22" y2="0.30418" stroke="white"/>
<line x1="658.423" y1="237.185" x2="1136.2" y2="237.185" stroke="white"/>
<line x1="658.423" y1="158.21" x2="1136.2" y2="158.21" stroke="white"/>
<line x1="658.423" y1="79.2341" x2="1136.2" y2="79.2341" stroke="white"/>
</g>
<defs>
<filter id="filter0_d_259_220" x="-60" y="-635.5" width="1200.28" height="965" filterUnits="userSpaceOnUse" color-interpolation-filters="sRGB">
<feFlood flood-opacity="0" result="BackgroundImageFix"/>
<feColorMatrix in="SourceAlpha" type="matrix" values="0 0 0 0 0 0 0 0 0 0 0 0 0 0 0 0 0 0 127 0" result="hardAlpha"/>
<feOffset dy="4"/>
<feGaussianBlur stdDeviation="2"/>
<feComposite in2="hardAlpha" operator="out"/>
<feColorMatrix type="matrix" values="0 0 0 0 0 0 0 0 0 0 0 0 0 0 0 0 0 0 0.25 0"/>
<feBlend mode="normal" in2="BackgroundImageFix" result="effect1_dropShadow_259_220"/>
<feBlend mode="normal" in="SourceGraphic" in2="effect1_dropShadow_259_220" result="shape"/>
</filter>
</defs>
</svg>
